<svg xmlns="http://www.w3.org/2000/svg" xmlns:xlink="http://www.w3.org/1999/xlink" preserveAspectRatio="xMidYMid" width="19" height="17" viewBox="0 0 19 17">
  <defs>
    <style>

      .cls-2 {
        stroke: #0a3436;
        stroke-width: 2px;
        filter: url(#drop-shadow-1);
        fill: none;
      }
    </style>

    <filter id="drop-shadow-1" filterUnits="userSpaceOnUse">
      <feOffset in="SourceAlpha" dx="-0.914" dy="0.407"/>
      <feGaussianBlur result="dropShadow" stdDeviation="1.414"/>
      <feFlood flood-color="#ffffff" flood-opacity="0.35"/>
      <feComposite operator="in" in2="dropShadow"/>
      <feComposite in="SourceGraphic" result="dropShadow"/>
    </filter>
  </defs>
  <g id="media-play-symbol3svg" style="fill: none; filter: url(#drop-shadow-1);">
    <path d="M13.500,12.500 C12.948,12.500 12.500,12.052 12.500,11.500 C12.500,11.500 12.500,5.500 12.500,5.500 C12.500,4.948 12.948,4.500 13.500,4.500 C14.052,4.500 14.500,4.948 14.500,5.500 C14.500,5.500 14.500,11.500 14.500,11.500 C14.500,12.052 14.052,12.500 13.500,12.500 ZM5.500,12.500 C4.948,12.500 4.500,12.052 4.500,11.500 C4.500,11.500 4.500,5.500 4.500,5.500 C4.500,4.948 4.948,4.500 5.500,4.500 C6.052,4.500 6.500,4.948 6.500,5.500 C6.500,5.500 6.500,11.500 6.500,11.500 C6.500,12.052 6.052,12.500 5.500,12.500 Z" id="path-1" class="cls-2" style="stroke: inherit; filter: none; fill: inherit;" fill-rule="evenodd"/>
  </g>
  <use xlink:href="#path-1" style="stroke: #0a3436; fill: none; filter: none;"/>
</svg>
